<?xml version="1.0" encoding="UTF-8"?>
<!DOCTYPE svg PUBLIC "-//W3C//DTD SVG 1.1//EN" "http://www.w3.org/Graphics/SVG/1.1/DTD/svg11.dtd">
<svg xmlns="http://www.w3.org/2000/svg" version="1.1" width="32px" height="32px" style="shape-rendering:geometricPrecision; text-rendering:geometricPrecision; image-rendering:optimizeQuality; fill-rule:evenodd; clip-rule:evenodd" xmlns:xlink="http://www.w3.org/1999/xlink">
<g><path style="opacity:0.993" fill="#ff8a0c" d="M -0.5,-0.5 C 10.1667,-0.5 20.8333,-0.5 31.5,-0.5C 31.5,10.1667 31.5,20.8333 31.5,31.5C 20.8333,31.5 10.1667,31.5 -0.5,31.5C -0.5,20.8333 -0.5,10.1667 -0.5,-0.5 Z"/></g>
<g><path style="opacity:1" fill="#fffbf8" d="M 1.5,5.5 C 5.16667,5.5 8.83333,5.5 12.5,5.5C 12.5,6.5 12.5,7.5 12.5,8.5C 9.83333,8.5 7.16667,8.5 4.5,8.5C 4.5,10.1667 4.5,11.8333 4.5,13.5C 6.83333,13.5 9.16667,13.5 11.5,13.5C 11.5,14.5 11.5,15.5 11.5,16.5C 9.16667,16.5 6.83333,16.5 4.5,16.5C 4.5,18.5 4.5,20.5 4.5,22.5C 7.5,22.5 10.5,22.5 13.5,22.5C 13.5,23.5 13.5,24.5 13.5,25.5C 9.5,25.5 5.5,25.5 1.5,25.5C 1.5,18.8333 1.5,12.1667 1.5,5.5 Z"/></g>
<g><path style="opacity:1" fill="#fff6ec" d="M 17.5,5.5 C 18.8333,5.5 20.1667,5.5 21.5,5.5C 21.5,11.1667 21.5,16.8333 21.5,22.5C 24.1667,22.5 26.8333,22.5 29.5,22.5C 29.5,23.5 29.5,24.5 29.5,25.5C 25.5,25.5 21.5,25.5 17.5,25.5C 17.5,18.8333 17.5,12.1667 17.5,5.5 Z"/></g>
</svg>
